<?xml version="1.0" encoding="UTF-8"?> <svg xmlns="http://www.w3.org/2000/svg" viewBox="0 0 505.74 63.31"><defs><style>.a{fill:#484849;}.b{fill:#4cbeeb;}.c{fill:#fff;}</style></defs><path class="a" d="M101.58,11.62c6.66,0,12,5.38,12,13.45s-5.38,13.31-12,13.31H91.25V51a.83.83,0,0,1-.85.85H84.09a.82.82,0,0,1-.84-.85V12.47a.81.81,0,0,1,.84-.85Zm4,13.52c0-4-2.19-5.73-4.74-5.73H91.25V31h9.63C103.43,31,105.62,29,105.62,25.14Z"></path><path class="a" d="M131.18,30.45c-5,.29-6,3.12-6,6.38V51a.82.82,0,0,1-.85.85H118a.83.83,0,0,1-.85-.85V24.36a.83.83,0,0,1,.85-.85h3.83c.49,0,.77.29,1,.85l.42,2.34a11.71,11.71,0,0,1,7.93-3.54h2.13a.82.82,0,0,1,.85.85V29.6a.82.82,0,0,1-.85.85Z"></path><path class="a" d="M165,37.53c0,7.93-6.52,14.66-14.24,14.66a14.9,14.9,0,0,1-14.79-14.66,14.65,14.65,0,0,1,14.79-14.37A14.4,14.4,0,0,1,165,37.53Zm-8,.08c0-4.32-2.91-7-6.31-7-3.68,0-6.72,2.62-6.72,7s3,7.5,6.72,7.5C154.05,45.11,157,41.92,157,37.61Z"></path><path class="a" d="M176.78,51.7,163.54,24.36a.82.82,0,0,1,.85-.85h6.73a1.32,1.32,0,0,1,1.13.85L177.84,37l5.6-12.68a1.31,1.31,0,0,1,1.13-.85h6.73a.83.83,0,0,1,.85.85L178.91,51.7a1.4,1.4,0,0,1-2.13,0Z"></path><path class="a" d="M199.3,11.12A4.75,4.75,0,0,1,204,15.87a4.66,4.66,0,0,1-4.74,4.6,4.59,4.59,0,0,1-4.6-4.6A4.67,4.67,0,0,1,199.3,11.12Zm4,39.87a.82.82,0,0,1-.84.85h-6.31a.83.83,0,0,1-.85-.85V24.36a.83.83,0,0,1,.85-.85h6.31a.82.82,0,0,1,.84.85Z"></path><path class="a" d="M237,51a.83.83,0,0,1-.85.85h-4A1.19,1.19,0,0,1,231,51l-.28-3.19c-1.56,3.05-6.52,4.39-9.7,4.39-7.51,0-13-6.73-13-14.66s5.66-14.37,13.45-14.37A9.8,9.8,0,0,1,229,26.42V12.47a.81.81,0,0,1,.85-.85h6.3a.82.82,0,0,1,.85.85Zm-8-13.38c0-4.32-3.12-7.16-6.66-7.16s-6.37,2.91-6.37,7.16,2.83,7.5,6.37,7.5S229,41.92,229,37.61Z"></path><path class="a" d="M266.64,40.08H248.23c0,4.75,4.6,5.46,6.65,5.46s5.24-.57,6.73-1.92a2.07,2.07,0,0,1,1.06-.42.66.66,0,0,1,.5.21L265.29,47a1.07,1.07,0,0,1,.21.71,1.63,1.63,0,0,1-.21.78c-2.48,3.11-6.58,3.75-10.34,3.75-8.07,0-14.8-4.32-14.8-14.3,0-7.86,4.11-14.73,13.67-14.73,7.79,0,13.74,5,13.74,14.09,0,1-.07.78-.07,2A.82.82,0,0,1,266.64,40.08Zm-18.41-5h11.54c0-3.4-3.68-4.47-5.81-4.47S248.23,31.73,248.23,35.06Z"></path><path class="a" d="M284.76,30.45c-5,.29-6,3.12-6,6.38V51a.82.82,0,0,1-.85.85h-6.3a.83.83,0,0,1-.85-.85V24.36a.83.83,0,0,1,.85-.85h3.83c.49,0,.77.29,1,.85l.42,2.34a11.71,11.71,0,0,1,7.93-3.54h2.13a.82.82,0,0,1,.85.85V29.6a.82.82,0,0,1-.85.85Z"></path><path class="a" d="M292,47.94a1.19,1.19,0,0,1,.07-.49l2.33-4.53a.81.81,0,0,1,.71-.29,1.08,1.08,0,0,1,.5.07,20.84,20.84,0,0,0,10.34,2.41c3.32,0,6.51-1.84,6.51-4.18,0-6.65-21-4.1-21-18.27,0-7.22,5.1-11.54,14.23-11.54,4.82,0,9.77,1.92,11.83,2.76a1.45,1.45,0,0,1,.56.78,1.21,1.21,0,0,1-.07.5L315.88,20a.8.8,0,0,1-.78.5,1.4,1.4,0,0,1-.5-.14c-1.84-.57-6.09-1.84-8.7-1.84-6.31,0-6.45,3.68-6.45,4.53,0,7.36,20.89,4.81,20.89,18.48,0,6.58-7.72,10.69-13.45,10.69-5,0-9.56-.35-14.52-3.54A1.09,1.09,0,0,1,292,47.94Z"></path><path class="a" d="M343.35,43.55a2.1,2.1,0,0,1,1.06-.42.64.64,0,0,1,.5.21l3,3.82a.9.9,0,0,1,.29.64,1.54,1.54,0,0,1-.22.78c-2.69,3-6.51,3.61-10.26,3.61A14.91,14.91,0,0,1,323,37.53a14.66,14.66,0,0,1,14.8-14.37c3.75,0,7.79.85,10.34,3.33a1.6,1.6,0,0,1,.21.78.86.86,0,0,1-.29.63L344.91,32a.64.64,0,0,1-.5.21,2.1,2.1,0,0,1-1.06-.42c-1.41-1.13-4.1-1.21-5.66-1.21-3.68,0-6.73,2.62-6.73,7s3.05,7.5,6.73,7.5C339.25,45.11,341.51,45.11,343.35,43.55Z"></path><path class="a" d="M355.11,11.12a4.75,4.75,0,0,1,4.74,4.75,4.66,4.66,0,0,1-4.74,4.6,4.6,4.6,0,0,1-4.61-4.6A4.68,4.68,0,0,1,355.11,11.12Zm4,39.87a.82.82,0,0,1-.85.85H352a.82.82,0,0,1-.85-.85V24.36a.82.82,0,0,1,.85-.85h6.3a.82.82,0,0,1,.85.85Z"></path><path class="a" d="M388.81,40.08H370.4c0,4.75,4.6,5.46,6.66,5.46s5.23-.57,6.72-1.92a2.1,2.1,0,0,1,1.06-.42.64.64,0,0,1,.5.21L387.46,47a1,1,0,0,1,.22.71,1.54,1.54,0,0,1-.22.78c-2.47,3.11-6.58,3.75-10.33,3.75-8.08,0-14.8-4.32-14.8-14.3,0-7.86,4.1-14.73,13.66-14.73,7.79,0,13.74,5,13.74,14.09,0,1-.07.78-.07,2A.82.82,0,0,1,388.81,40.08Zm-18.41-5h11.54c0-3.4-3.68-4.47-5.81-4.47S370.4,31.73,370.4,35.06Z"></path><path class="a" d="M399,26.7a11.64,11.64,0,0,1,8.86-3.54c8,0,11.54,5.95,11.54,12.68V51a.83.83,0,0,1-.85.85h-6.3a.82.82,0,0,1-.85-.85V36.83c0-3.47-.43-6.38-5.46-6.38-3.54,0-5,2.91-5,6.38V51a.83.83,0,0,1-.85.85h-6.31a.82.82,0,0,1-.84-.85V24.36a.82.82,0,0,1,.84-.85h3.9c.5,0,.78.29,1,.85Z"></path><path class="a" d="M443.28,43.55a2.07,2.07,0,0,1,1.06-.42.67.67,0,0,1,.5.21l3,3.82a.93.93,0,0,1,.28.64,1.63,1.63,0,0,1-.21.78c-2.69,3-6.51,3.61-10.27,3.61a14.9,14.9,0,0,1-14.79-14.66,14.65,14.65,0,0,1,14.79-14.37c3.76,0,7.79.85,10.34,3.33a1.6,1.6,0,0,1,.21.78.89.89,0,0,1-.28.63L444.84,32a.67.67,0,0,1-.5.21,2.07,2.07,0,0,1-1.06-.42c-1.42-1.13-4.11-1.21-5.67-1.21-3.68,0-6.72,2.62-6.72,7s3,7.5,6.72,7.5C439.17,45.11,441.44,45.11,443.28,43.55Z"></path><path class="a" d="M476.08,40.08H457.67c0,4.75,4.6,5.46,6.66,5.46s5.23-.57,6.72-1.92a2.1,2.1,0,0,1,1.06-.42.64.64,0,0,1,.5.21L474.73,47a1,1,0,0,1,.22.71,1.54,1.54,0,0,1-.22.78c-2.47,3.11-6.58,3.75-10.33,3.75-8.08,0-14.8-4.32-14.8-14.3,0-7.86,4.1-14.73,13.66-14.73,7.79,0,13.74,5,13.74,14.09,0,1-.07.78-.07,2A.81.81,0,0,1,476.08,40.08Zm-18.41-5h11.54c0-3.4-3.68-4.47-5.81-4.47S457.67,31.73,457.67,35.06Z"></path><path class="b" d="M31.66,0a31.65,31.65,0,0,0-10,61.69c-4.32-8.86-8.41-19-8.41-25.52V36c0-3.38,3.09-4.85,4.71-2.31,3.48,5.51,8.33,8.92,13.68,8.92s10.19-3.41,13.69-8.92C47,31.18,50,32.65,50.05,36v.14c0,6.56-4.08,16.66-8.4,25.52A31.65,31.65,0,0,0,31.66,0Zm0,36.35a9.81,9.81,0,1,1,9.82-9.82A9.82,9.82,0,0,1,31.66,36.35Z"></path><path class="c" d="M41.48,26.53a9.82,9.82,0,1,1-9.82-9.8A9.82,9.82,0,0,1,41.48,26.53Z"></path><path class="c" d="M50.05,36v.14c0,6.56-4.08,16.66-8.4,25.52a31.58,31.58,0,0,1-20,0c-4.32-8.86-8.41-19-8.41-25.52V36c0-3.38,3.09-4.85,4.71-2.31,3.48,5.51,8.33,8.92,13.68,8.92s10.19-3.41,13.69-8.92C47,31.18,50,32.65,50.05,36Z"></path><path class="a" d="M505.74,25A8.69,8.69,0,1,1,497,16.32,8.68,8.68,0,0,1,505.74,25Zm-1.64,0A7.06,7.06,0,1,0,490,25a7.06,7.06,0,0,0,14.11,0Zm-7.16,1.82H496v2.91a.19.19,0,0,1-.21.21h-2.28a.19.19,0,0,1-.21-.21V20.24c0-.15.06-.21.21-.21h3.4c3.28,0,4.07,1.79,4.07,3.61a3.22,3.22,0,0,1-1.83,3L501,29.76a.21.21,0,0,1-.22.21h-2.15a.26.26,0,0,1-.27-.21Zm1.34-3.37c0-.79-.52-.94-1.13-.94H496v1.82h1.15C497.76,24.36,498.28,24.27,498.28,23.48Z"></path></svg> 